<svg version="1.1" id="Layer_1" xmlns="http://www.w3.org/2000/svg" xmlns:xlink="http://www.w3.org/1999/xlink" x="0px" y="0px"
	 width="100%" viewBox="0 0 898 1007" enable-background="new 0 0 898 1007" xml:space="preserve">
<path fill="#FEFDFD" opacity="1.000000" stroke="none" 
	d="
M474.000000,1008.000000 
	C316.000000,1008.000000 158.500000,1008.000000 1.000000,1008.000000 
	C1.000000,672.333313 1.000000,336.666656 1.000000,1.000000 
	C300.333344,1.000000 599.666687,1.000000 899.000000,1.000000 
	C899.000000,336.666656 899.000000,672.333313 899.000000,1008.000000 
	C757.500000,1008.000000 616.000000,1008.000000 474.000000,1008.000000 
M398.730316,519.804871 
	C398.785187,520.215027 398.840088,520.625183 398.772766,521.875000 
	C398.814728,523.568787 398.856659,525.262573 398.775360,527.895325 
	C398.814819,539.280029 398.854279,550.664673 398.768036,562.680237 
	C398.810028,563.105042 398.852020,563.529785 398.775146,564.878906 
	C398.816101,568.601807 398.857056,572.324646 398.767883,576.822876 
	C398.811401,577.867310 398.854919,578.911682 398.776917,580.895325 
	C398.818359,591.945435 398.859772,602.995483 398.772980,614.826599 
	C398.819183,615.877869 398.865356,616.929138 398.838165,618.499512 
	C398.884583,618.668030 398.931030,618.836487 398.901459,619.894531 
	C399.478546,651.015503 422.565033,682.923523 452.519440,694.999451 
	C473.905487,703.621155 496.047607,700.643066 518.904663,700.688599 
	C535.270691,700.713135 551.636658,700.737732 568.911072,700.908447 
	C574.098328,701.189270 579.628479,699.860840 584.258240,704.632568 
	C585.213501,705.219299 586.168823,705.806030 587.538635,706.964539 
	C602.679871,718.414185 617.792603,729.901855 632.982056,741.287231 
	C636.861633,744.195129 641.256531,744.882385 645.664429,742.541016 
	C650.008606,740.233459 652.067017,736.473206 651.978760,731.474670 
	C651.834839,723.315063 651.825012,715.153076 651.903442,706.133789 
	C651.999451,704.509766 652.095398,702.885803 652.201782,701.085510 
	C655.904968,700.514832 659.373657,700.171387 662.755188,699.430115 
	C703.174377,690.569702 730.902527,656.056396 730.924683,614.601257 
	C730.948059,570.959351 730.969604,527.317383 730.879639,483.675659 
	C730.869385,478.704071 730.570923,473.653229 729.667664,468.775909 
	C722.048706,427.637817 691.535034,398.190887 649.936646,396.702576 
	C599.706299,394.905396 549.358398,396.396790 498.632324,396.172180 
	C498.471802,396.107269 498.311310,396.042328 498.074432,395.046021 
	C498.053223,361.631805 498.025665,328.217590 498.014435,294.803375 
	C498.010712,283.712585 496.026520,272.991791 491.821381,262.736877 
	C483.796539,243.166824 470.949463,227.807068 451.699280,217.241409 
	C439.309448,210.114288 425.937653,206.379745 411.675446,206.358490 
	C351.702515,206.269135 291.729431,206.306229 231.756439,206.361755 
	C230.289612,206.363113 228.823486,207.118652 226.539200,207.021606 
	C224.548203,207.062607 222.528137,206.897995 220.570480,207.174805 
	C176.677521,213.381577 143.991547,250.796860 143.871140,295.212402 
	C143.748749,340.356995 143.791489,385.502258 143.871841,430.647064 
	C143.936798,467.138824 165.760284,499.098877 199.814392,512.464417 
	C206.234100,514.984070 212.993195,516.639099 219.778381,518.749878 
	C219.778381,529.534119 219.614700,540.188110 219.827484,550.834534 
	C220.015182,560.225403 230.516220,565.857056 238.324768,560.569824 
	C245.197754,555.916138 251.557114,550.503845 258.801727,545.154175 
	C269.553558,536.820923 280.305359,528.487732 291.875671,519.957642 
	C293.969513,519.615479 296.061432,518.989563 298.157532,518.975220 
	C317.773041,518.840759 337.389252,518.811096 357.930969,518.903015 
	C366.622192,518.860107 375.313416,518.817200 384.923950,518.912964 
	C389.499451,519.003967 394.074951,519.094971 398.730316,519.804871 
M229.123779,896.072510 
	C229.075729,891.044495 229.027695,886.016541 229.092682,880.058228 
	C229.197556,869.269043 229.300140,858.479919 229.408493,847.690735 
	C229.450912,843.465942 227.802155,840.527161 223.253082,840.204163 
	C219.264053,839.920776 216.558914,842.920654 216.583115,847.705322 
	C216.672913,865.465393 216.867493,883.224915 216.829254,901.892090 
	C216.887253,905.593628 216.945251,909.295105 217.036987,913.717102 
	C218.498062,917.065552 221.096436,918.630432 224.603714,917.698792 
	C228.163986,916.752991 229.305984,913.964539 229.168335,910.403992 
	C228.995819,905.940491 229.047501,901.468384 229.123779,896.072510 
M568.999268,133.556961 
	C569.324829,133.669586 569.650452,133.782211 570.483093,134.010483 
	C570.656311,134.003448 570.829529,133.996429 571.598145,134.388489 
	C588.383850,142.995316 605.551147,150.947952 621.822388,160.436920 
	C632.829834,166.856186 642.576599,175.437378 653.231323,183.626556 
	C679.217712,206.630142 699.814819,233.736313 716.026001,264.421783 
	C734.108093,298.648895 745.658875,350.327148 744.238159,363.126495 
	C738.741882,357.058380 733.472656,351.317719 728.292786,345.497467 
	C724.248596,340.953339 718.145386,340.313934 713.684265,344.095642 
	C709.294678,347.816772 709.008362,353.412872 713.097351,358.293518 
	C715.341797,360.972534 717.777100,363.492340 720.141357,366.070099 
	C730.497375,377.361572 740.763062,388.737976 751.256470,399.900360 
	C756.974915,405.983459 766.154297,404.800598 769.745972,397.536102 
	C777.938354,380.966370 785.923706,364.293823 793.930847,347.633118 
	C796.078918,343.163574 795.088745,339.127777 791.445862,335.886871 
	C786.365540,331.367065 778.564697,333.477417 775.245667,340.209290 
	C772.218567,346.349030 769.272705,352.528778 766.291016,358.690887 
	C765.114502,356.875610 764.976807,355.427704 764.759155,353.991943 
	C764.510010,352.348511 764.155518,350.721039 763.905518,349.077698 
	C756.135803,297.999573 737.143738,251.518509 705.375244,210.752960 
	C694.495605,196.792084 681.273499,184.656738 668.859070,171.092636 
	C659.831543,163.885330 651.097534,156.267380 641.713196,149.559235 
	C624.122314,136.984802 605.373169,126.376190 584.573547,118.225227 
	C583.498840,117.793823 582.424866,117.360527 581.349304,116.931267 
	C559.296387,108.130142 536.660278,101.518524 512.260010,98.505745 
	C493.976440,95.367004 475.513672,94.208549 457.051025,95.318893 
	C441.660431,96.244492 426.350098,98.505356 410.181671,100.111732 
	C391.301270,105.149162 372.394012,110.089302 353.557251,115.284966 
	C348.102295,116.789574 345.401337,122.381119 347.033203,127.465797 
	C348.752930,132.824234 354.029816,135.713074 359.719269,134.137115 
	C376.496429,129.489899 393.243927,124.735558 410.853516,120.035995 
	C434.051300,115.798019 457.440887,114.167923 481.877472,115.029144 
	C492.058136,116.163139 502.438232,116.403763 512.376648,118.622780 
	C531.294983,122.846794 549.960999,128.201065 568.999268,133.556961 
M361.084686,761.684509 
	C355.381287,761.697449 349.677856,761.710327 343.157990,761.494629 
	C340.105133,761.331177 337.052277,761.167664 333.431427,760.727478 
	C332.620880,760.678833 331.810333,760.630127 330.206482,760.296448 
	C328.802032,760.229675 327.397552,760.162903 325.284424,759.910034 
	C323.857269,759.752563 322.430145,759.595093 320.464630,759.292236 
	C320.279663,759.310852 320.094727,759.329407 319.147369,759.071167 
	C317.807190,758.897156 316.466980,758.723145 314.565826,758.228638 
	C313.710541,758.152771 312.855286,758.076904 311.308807,757.768494 
	C310.589478,757.650269 309.870117,757.532104 308.659058,757.144775 
	C308.105713,757.100464 307.552368,757.056152 306.310760,756.655823 
	C286.492523,752.054749 267.442566,745.445923 249.555450,735.580933 
	C228.809494,724.139160 210.981110,709.148865 194.908066,691.067627 
	C168.803253,659.889771 155.702881,623.440247 151.161621,583.409485 
	C152.821365,584.421631 154.025421,585.712158 155.184891,587.041504 
	C158.685120,591.054688 161.939224,595.314392 165.715576,599.046692 
	C170.451477,603.727356 177.820175,602.619873 181.184143,597.025208 
	C183.937485,592.446045 182.482681,588.426697 179.270508,584.727783 
	C168.136963,571.907288 156.938583,559.142212 145.892853,546.246521 
	C139.205185,538.438721 129.954803,539.316895 125.393120,548.398560 
	C117.920784,563.274780 110.452499,578.153076 102.996239,593.037415 
	C99.718689,599.580139 100.876709,604.759460 106.216614,607.624268 
	C111.764626,610.600708 117.495193,608.311035 120.908501,601.735168 
	C123.713638,596.330872 126.499222,590.916382 129.745728,584.630798 
	C130.334091,587.820984 130.766876,589.923462 131.105576,592.041016 
	C136.068619,623.069397 145.074280,652.683838 161.958389,679.489990 
	C171.932785,695.325806 183.359589,709.979492 198.092178,722.711792 
	C202.782944,726.681641 207.302963,730.876709 212.192657,734.584229 
	C240.450211,756.010071 271.741241,770.693726 307.458710,777.077759 
	C307.771576,777.191711 308.075653,777.353271 308.398560,777.412842 
	C348.747772,784.861145 388.487823,782.184204 427.653748,770.177612 
	C428.888916,769.798950 430.147308,769.199402 431.144318,768.393066 
	C435.057098,765.228577 435.940643,760.638123 433.621338,756.329224 
	C431.131805,751.704041 426.434265,749.975220 420.772797,751.424622 
	C413.053101,753.400940 405.386292,755.752808 397.549591,757.063354 
	C385.774139,759.032471 373.871063,760.238464 361.084686,761.684509 
M441.500000,807.042419 
	C371.170654,807.041992 300.841278,807.012878 230.511993,807.081238 
	C222.714600,807.088806 214.902405,807.438171 207.123413,807.996155 
	C179.221375,809.997437 156.069656,834.909790 155.982330,862.879089 
	C155.946945,874.211792 155.812134,885.548462 156.067932,896.875488 
	C156.160370,900.968811 156.822372,905.168213 157.974503,909.099426 
	C165.787827,935.759094 188.778885,950.854492 215.811295,950.880127 
	C369.971008,951.026611 524.130859,950.972717 678.290710,950.918091 
	C692.076416,950.913147 704.999695,947.466248 716.055908,938.903625 
	C728.533325,929.240234 736.871521,916.828003 737.890930,900.735046 
	C738.574402,889.944946 738.075684,879.077393 738.029541,868.244812 
	C738.007690,863.110596 734.733887,860.000549 729.565308,859.982483 
	C724.404968,859.964417 721.101074,863.021606 721.014648,868.285156 
	C720.886108,876.116089 721.169128,883.956970 720.903259,891.781006 
	C720.758057,896.054749 720.354309,900.447998 719.188477,904.536804 
	C713.893921,923.105774 698.502869,933.955811 677.914612,933.956787 
	C528.754578,933.963440 379.594543,933.973022 230.434509,933.921265 
	C223.304871,933.918762 216.159637,933.550781 209.048950,933.000366 
	C189.581985,931.493530 174.023788,914.545044 173.956467,894.944336 
	C173.918701,883.944946 173.627151,872.931213 174.104050,861.952332 
	C174.315018,857.095337 175.324173,851.918091 177.391052,847.559631 
	C185.231430,831.026184 199.313614,824.084534 216.983261,824.076050 
	C368.976471,824.002930 520.969727,824.036621 672.963013,824.038269 
	C674.462952,824.038330 675.965027,824.089539 677.462341,824.026733 
	C681.939941,823.839050 684.880249,820.909790 685.042053,816.533203 
	C685.285217,809.957214 681.942871,807.052979 673.989746,807.051880 
	C596.826477,807.041504 519.663269,807.043884 441.500000,807.042419 
M758.145996,791.586914 
	C750.998169,796.437622 743.841553,801.275513 736.705505,806.143494 
	C731.618286,809.613953 730.151794,814.629150 732.936951,818.863342 
	C735.823059,823.250793 740.780579,824.032104 746.061279,820.616577 
	C753.453674,815.835388 760.761902,810.920166 768.019470,805.936096 
	C772.805298,802.649353 774.016846,797.763306 771.379883,793.450439 
	C768.805908,789.240601 764.122864,788.390381 758.145996,791.586914 
M721.713440,765.183289 
	C719.116699,767.250244 715.470337,768.794373 714.129272,771.486755 
	C710.735840,778.299500 708.267151,785.587524 705.640625,792.762939 
	C703.537354,798.508606 705.419250,802.759277 710.494263,804.527100 
	C715.182190,806.160095 720.010681,803.744568 722.045105,798.631653 
	C724.687500,791.990662 727.276489,785.327942 729.826294,778.650879 
	C732.658691,771.233887 730.383911,767.107056 721.713440,765.183289 
M759.576050,835.176575 
	C757.416382,835.175354 755.244507,835.026245 753.099548,835.203430 
	C748.529846,835.580933 745.804016,838.198669 745.085022,842.667969 
	C744.278076,847.684509 747.321350,851.770569 752.936523,852.065796 
	C761.038025,852.491699 769.181519,852.178467 777.306091,852.084961 
	C782.810669,852.021606 785.964539,849.045898 786.045776,844.062073 
	C786.132996,838.706299 783.004883,835.357910 777.498657,835.226929 
	C771.853333,835.092590 766.202637,835.184814 759.576050,835.176575 
z"/>
<path fill="#5FA4FD" opacity="1.000000" stroke="none" 
	d="
M258.143311,545.426636 
	C251.557114,550.503845 245.197754,555.916138 238.324768,560.569824 
	C230.516220,565.857056 220.015182,560.225403 219.827484,550.834534 
	C219.614700,540.188110 219.778381,529.534119 219.778381,518.749878 
	C212.993195,516.639099 206.234100,514.984070 199.814392,512.464417 
	C165.760284,499.098877 143.936798,467.138824 143.871841,430.647064 
	C143.791489,385.502258 143.748749,340.356995 143.871140,295.212402 
	C143.991547,250.796860 176.677521,213.381577 220.570480,207.174805 
	C222.528137,206.897995 224.548203,207.062607 227.229584,207.428101 
	C233.947052,207.890289 239.974136,207.946014 246.033813,208.347626 
	C245.176178,212.849960 244.788696,217.201584 243.269852,221.113968 
	C241.325577,226.122253 239.804398,230.815460 242.771179,235.877243 
	C243.064514,236.377716 243.116257,237.341141 242.827560,237.812469 
	C239.329010,243.524246 242.763901,247.811417 245.667908,251.688705 
	C244.328461,254.680603 242.399231,257.167023 242.171402,259.800659 
	C240.888260,274.633850 239.837540,289.493927 239.126938,304.364929 
	C238.952881,308.007629 239.942108,311.411255 235.998825,313.874084 
	C235.121780,314.421875 235.019302,317.410980 235.589371,318.875397 
	C238.773026,327.053833 236.128464,335.595276 233.824448,342.517883 
	C231.208572,350.377563 234.145309,355.801910 236.598312,361.567230 
	C237.785522,364.357513 238.910446,366.767670 237.696136,369.130859 
	C235.111526,374.160889 232.198746,379.098022 228.804749,383.610077 
	C226.510300,386.660339 226.671677,389.336426 229.427628,392.122467 
	C231.237640,393.952301 232.535660,396.956238 232.761993,399.547943 
	C233.254303,405.185120 232.913986,410.895020 232.913986,415.273651 
	C236.861740,417.389648 239.584534,418.849060 241.602234,419.930573 
	C243.266205,417.381317 244.472214,414.150879 246.791733,412.373962 
	C249.054901,410.640198 249.872192,409.165771 250.126617,406.408569 
	C250.533401,402.000275 252.559509,398.311279 257.327698,397.495880 
	C253.540268,407.584045 249.891357,417.318573 246.112793,427.002533 
	C242.536072,436.169128 243.376190,440.228912 250.173752,446.936249 
	C249.698044,447.563232 249.265198,448.123016 249.401276,448.433044 
	C251.064209,452.221161 252.674759,455.827026 250.203506,460.095703 
	C249.612228,461.117035 251.296890,463.383209 251.772156,465.121307 
	C252.071655,466.216553 252.519211,468.196869 252.133453,468.413330 
	C247.372223,471.084686 248.406250,475.642731 248.262344,479.756500 
	C248.182999,482.024445 249.114044,484.466003 248.557953,486.554657 
	C246.318039,494.967773 252.966995,503.116577 249.102478,511.498596 
	C248.994034,511.733826 249.151123,512.190491 249.328217,512.443115 
	C251.299576,515.255493 250.195938,517.842529 249.471848,520.843445 
	C248.895126,523.233459 249.856430,528.032227 251.179031,528.449036 
	C254.704590,529.560242 256.131500,531.750793 256.768555,534.681702 
	C257.532623,538.196899 257.711212,541.839294 258.143311,545.426636 
z"/>
<path fill="#52BFB0" opacity="1.000000" stroke="none" 
	d="
M499.061371,396.464844 
	C549.358398,396.396790 599.706299,394.905396 649.936646,396.702576 
	C691.535034,398.190887 722.048706,427.637817 729.667664,468.775909 
	C730.570923,473.653229 730.869385,478.704071 730.879639,483.675659 
	C730.969604,527.317383 730.948059,570.959351 730.924683,614.601257 
	C730.902527,656.056396 703.174377,690.569702 662.755188,699.430115 
	C659.373657,700.171387 655.904968,700.514832 652.201782,701.085510 
	C652.095398,702.885803 651.999451,704.509766 651.438538,706.565247 
	C648.098999,706.647766 646.210938,707.573181 645.583313,710.682617 
	C644.891479,714.109802 643.938110,717.484253 643.046997,721.091003 
	C642.098450,720.725769 641.266174,720.673096 640.944092,720.240479 
	C637.015686,714.963074 633.117188,709.661377 629.343872,704.272888 
	C628.849548,703.566956 629.059937,702.343750 629.006226,701.356750 
	C628.525146,692.515991 629.540710,683.921387 632.193726,675.400024 
	C633.745117,670.417053 634.117737,665.065552 635.001465,659.876587 
	C635.797180,655.204163 636.566833,650.918518 642.589233,649.652405 
	C644.612427,649.227051 645.997314,645.765564 647.673950,643.691772 
	C645.656189,642.733887 643.638428,641.776001 641.856567,640.562378 
	C647.255859,636.826172 650.728577,632.262268 649.780945,625.756958 
	C648.906616,619.755554 643.906006,618.074158 638.946472,616.055298 
	C628.026123,611.610046 617.093201,607.075745 606.619324,601.694458 
	C599.186401,597.875610 592.495789,592.612305 585.187439,587.805298 
	C603.508545,566.802734 615.539612,543.525696 623.061890,517.800537 
	C623.393677,516.665710 625.661560,515.482361 627.093445,515.394470 
	C632.234009,515.078613 637.404175,515.286438 642.560669,515.178772 
	C648.571167,515.053406 652.578247,511.248993 653.058777,505.371277 
	C653.598511,498.770508 650.337646,494.424805 643.064331,491.619873 
	C649.261108,487.166870 649.341980,485.417999 643.452881,480.002319 
	C642.249329,478.895538 640.798462,478.030182 639.382324,477.186493 
	C631.253906,472.343506 629.301941,464.994629 634.328369,457.169769 
	C635.988953,454.584564 636.646606,451.889221 634.236572,450.012756 
	C629.895142,446.632538 629.850220,442.262695 629.916748,437.497955 
	C629.953064,434.891327 629.274170,432.249268 628.724365,429.664337 
	C626.548157,419.431427 630.223999,415.561768 640.569397,417.022461 
	C642.401489,417.281128 645.745911,417.096771 646.026001,416.292786 
	C647.203918,412.911316 647.805420,409.232391 647.976074,405.631927 
	C648.083069,403.372437 647.049561,401.058899 646.354736,398.010406 
	C625.540588,398.010406 603.769104,398.010406 581.529053,398.007568 
	C557.040405,398.005188 533.020264,398.005646 508.554901,398.003601 
	C505.093567,397.489014 502.077484,396.976929 499.061371,396.464844 
z"/>
<path fill="#54C5BF" opacity="1.000000" stroke="none" 
	d="
M398.898438,579.956116 
	C398.854919,578.911682 398.811401,577.867310 399.145752,576.155701 
	C399.313751,571.643860 399.103851,567.799255 398.893982,563.954590 
	C398.852020,563.529785 398.810028,563.105042 399.148254,562.079346 
	C399.660400,550.516235 399.807281,539.554077 399.879913,528.591370 
	C399.883514,528.048584 399.240540,527.501465 398.898621,526.956360 
	C398.856659,525.262573 398.814728,523.568787 399.093628,521.302429 
	C399.613098,520.179565 399.811707,519.629333 400.476501,519.045410 
	C409.059387,518.580566 417.423004,519.263184 425.250641,517.527954 
	C461.729309,509.441559 485.329834,487.258728 495.381104,451.084625 
	C496.568176,446.812439 497.121887,442.364288 498.356140,438.079346 
	C499.387024,440.611450 500.565247,443.059662 500.575500,445.512756 
	C500.607117,453.072571 503.322754,460.960907 497.333649,467.914551 
	C496.040710,469.415741 496.130157,474.453125 497.411194,475.407501 
	C502.194672,478.971191 506.846313,483.507721 513.640564,483.000549 
	C522.271362,482.356232 530.902161,481.712280 539.533569,481.075989 
	C542.341003,480.869019 544.936157,480.763123 545.043579,484.816223 
	C545.133606,488.211700 544.354980,490.191772 540.388916,490.050385 
	C534.332520,489.834503 528.263550,489.963257 522.199890,489.965607 
	C512.313293,489.969452 502.425140,489.909546 492.542236,490.106232 
	C491.343628,490.130066 490.173309,491.574005 488.739014,492.559937 
	C482.164307,496.948212 480.008606,501.563293 481.707458,507.276306 
	C483.487183,513.261292 486.677399,515.188721 494.830933,515.194397 
	C500.740051,515.198486 506.649170,515.195190 511.839294,515.195190 
	C512.444641,518.625183 512.562805,521.098999 513.328735,523.352661 
	C520.298279,543.859131 530.302490,562.755798 543.672485,579.832031 
	C545.672180,582.385986 547.722351,584.900391 549.905945,587.629028 
	C548.068054,589.094299 546.816467,590.165955 545.491272,591.137268 
	C529.771484,602.659668 512.503784,611.118652 493.981018,617.071838 
	C486.965088,619.326660 483.693970,624.592407 485.335632,631.127930 
	C487.016632,637.820190 493.557251,642.539917 499.989929,640.913696 
	C506.093048,639.370728 511.968323,636.926514 518.109253,635.124268 
	C518.849731,634.906494 519.424866,634.443054 520.275146,633.781128 
	C522.003784,632.954834 523.457153,632.326965 525.075378,631.981567 
	C526.427612,632.405518 527.614990,632.547058 530.290283,632.866028 
	C527.325745,635.775940 525.133789,637.841064 523.048889,640.009155 
	C521.949951,641.151978 520.815247,642.357361 520.088013,643.740295 
	C518.580811,646.606506 517.095276,649.527100 516.038208,652.576904 
	C514.478699,657.075989 509.512268,660.483337 511.607056,666.170898 
	C513.818115,672.174011 514.007751,678.138062 511.006989,683.948303 
	C509.675507,686.526245 509.972565,687.846558 512.950867,689.243225 
	C520.644409,692.851013 520.757080,693.559448 518.049927,700.538574 
	C496.047607,700.643066 473.905487,703.621155 452.519440,694.999451 
	C422.565033,682.923523 399.478546,651.015503 399.111755,619.353455 
	C399.185242,618.535034 399.048401,618.257751 398.911560,617.980408 
	C398.865356,616.929138 398.819183,615.877869 399.153076,614.150146 
	C399.663452,602.846130 399.809082,592.218689 399.879517,581.590759 
	C399.883118,581.048096 399.240295,580.501099 398.898438,579.956116 
z"/>
<path fill="#D1D3E6" opacity="1.000000" stroke="none" 
	d="
M442.000000,807.042480 
	C519.663269,807.043884 596.826477,807.041504 673.989746,807.051880 
	C681.942871,807.052979 685.285217,809.957214 685.042053,816.533203 
	C684.880249,820.909790 681.939941,823.839050 677.462341,824.026733 
	C675.965027,824.089539 674.462952,824.038330 672.963013,824.038269 
	C520.969727,824.036621 368.976471,824.002930 216.983261,824.076050 
	C199.313614,824.084534 185.231430,831.026184 177.391052,847.559631 
	C175.324173,851.918091 174.315018,857.095337 174.104050,861.952332 
	C173.627151,872.931213 173.918701,883.944946 173.956467,894.944336 
	C174.023788,914.545044 189.581985,931.493530 209.048950,933.000366 
	C216.159637,933.550781 223.304871,933.918762 230.434509,933.921265 
	C379.594543,933.973022 528.754578,933.963440 677.914612,933.956787 
	C698.502869,933.955811 713.893921,923.105774 719.188477,904.536804 
	C720.354309,900.447998 720.758057,896.054749 720.903259,891.781006 
	C721.169128,883.956970 720.886108,876.116089 721.014648,868.285156 
	C721.101074,863.021606 724.404968,859.964417 729.565308,859.982483 
	C734.733887,860.000549 738.007690,863.110596 738.029541,868.244812 
	C738.075684,879.077393 738.574402,889.944946 737.890930,900.735046 
	C736.871521,916.828003 728.533325,929.240234 716.055908,938.903625 
	C704.999695,947.466248 692.076416,950.913147 678.290710,950.918091 
	C524.130859,950.972717 369.971008,951.026611 215.811295,950.880127 
	C188.778885,950.854492 165.787827,935.759094 157.974503,909.099426 
	C156.822372,905.168213 156.160370,900.968811 156.067932,896.875488 
	C155.812134,885.548462 155.946945,874.211792 155.982330,862.879089 
	C156.069656,834.909790 179.221375,809.997437 207.123413,807.996155 
	C214.902405,807.438171 222.714600,807.088806 230.511993,807.081238 
	C300.841278,807.012878 371.170654,807.041992 442.000000,807.042480 
z"/>
<path fill="#6292FD" opacity="1.000000" stroke="none" 
	d="
M452.100677,217.774597 
	C470.949463,227.807068 483.796539,243.166824 491.821381,262.736877 
	C496.026520,272.991791 498.010712,283.712585 498.014435,294.803375 
	C498.025665,328.217590 498.053223,361.631805 498.030579,395.603394 
	C497.986755,396.160736 497.831085,396.351593 497.387634,396.237244 
	C489.985779,396.394073 483.024658,396.609131 476.069519,396.946960 
	C455.621796,397.939972 439.102386,407.912964 424.181488,420.699188 
	C419.349945,424.839539 416.283844,431.036316 412.394684,436.280975 
	C405.228516,445.944702 401.799866,457.102386 400.053864,468.753052 
	C398.903931,476.426208 398.702271,484.241455 397.711456,491.941956 
	C396.231323,489.279541 394.775024,486.752808 394.099609,484.032227 
	C393.472534,481.506256 394.394073,478.457001 393.390320,476.188263 
	C389.701294,467.849976 389.857178,459.777313 395.309601,452.603821 
	C404.254425,440.835449 396.739868,428.032471 398.354095,415.852478 
	C398.427887,415.295746 397.689301,414.673187 397.594666,414.041504 
	C397.479858,413.275146 397.346771,412.244263 397.740570,411.711121 
	C401.020325,407.270599 404.591431,403.036926 407.722290,398.497803 
	C409.792786,395.495972 411.705658,392.242737 412.907928,388.827087 
	C413.990784,385.750702 413.066498,381.689331 414.709320,379.150848 
	C417.498108,374.841644 418.175232,371.156860 416.431854,366.279236 
	C415.441071,363.507355 415.845062,359.941193 416.514862,356.931671 
	C418.013580,350.197388 419.720764,343.166687 416.059296,337.104462 
	C413.527069,332.911835 414.514740,331.595123 417.860901,329.384064 
	C421.829498,326.761688 423.609619,323.629333 421.825836,318.082306 
	C419.587280,311.121155 418.369141,303.588440 418.182373,296.264893 
	C417.859039,283.588104 418.633301,270.881348 419.018494,258.189362 
	C419.181274,252.825775 421.515472,250.295151 427.404938,248.737122 
	C434.152435,246.952103 434.488953,245.561783 430.485413,239.766220 
	C429.490601,238.326157 429.350098,235.714249 429.869141,233.950668 
	C430.591797,231.495438 431.996643,229.062698 433.686981,227.123764 
	C435.194305,225.394791 437.350250,224.062454 439.460724,223.064148 
	C443.585236,221.113174 447.877747,219.517426 452.100677,217.774597 
z"/>
<path fill="#6F84FC" opacity="1.000000" stroke="none" 
	d="
M669.121582,171.687332 
	C681.273499,184.656738 694.495605,196.792084 705.375244,210.752960 
	C737.143738,251.518509 756.135803,297.999573 763.905518,349.077698 
	C764.155518,350.721039 764.510010,352.348511 764.759155,353.991943 
	C764.976807,355.427704 765.114502,356.875610 766.291016,358.690887 
	C769.272705,352.528778 772.218567,346.349030 775.245667,340.209290 
	C778.564697,333.477417 786.365540,331.367065 791.445862,335.886871 
	C795.088745,339.127777 796.078918,343.163574 793.930847,347.633118 
	C785.923706,364.293823 777.938354,380.966370 769.745972,397.536102 
	C766.154297,404.800598 756.974915,405.983459 751.256470,399.900360 
	C740.763062,388.737976 730.497375,377.361572 720.141357,366.070099 
	C717.777100,363.492340 715.341797,360.972534 713.097351,358.293518 
	C709.008362,353.412872 709.294678,347.816772 713.684265,344.095642 
	C718.145386,340.313934 724.248596,340.953339 728.292786,345.497467 
	C733.472656,351.317719 738.741882,357.058380 744.238159,363.126495 
	C745.658875,350.327148 734.108093,298.648895 716.026001,264.421783 
	C699.814819,233.736313 679.217712,206.630142 653.393433,183.191483 
	C654.218140,182.291870 655.287354,181.954803 655.479309,181.342682 
	C657.066284,176.281555 660.658203,175.857483 665.078308,176.807861 
	C666.437317,177.100052 667.912170,176.853241 669.485413,176.853241 
	C669.344238,174.848663 669.232910,173.268005 669.121582,171.687332 
z"/>
<path fill="#629BFD" opacity="1.000000" stroke="none" 
	d="
M357.005280,518.751099 
	C337.389252,518.811096 317.773041,518.840759 298.157532,518.975220 
	C296.061432,518.989563 293.969513,519.615479 291.411011,519.660400 
	C290.917480,517.152771 290.036743,514.406738 291.024658,512.835693 
	C293.640503,508.675934 292.256897,504.545135 292.193329,500.335297 
	C292.102631,494.331696 290.944214,487.872955 292.744141,482.437195 
	C294.769989,476.319092 296.134552,470.490021 296.135406,464.099457 
	C296.135742,461.724396 297.378693,459.185425 298.580170,457.011505 
	C300.580780,453.391754 302.514954,450.107422 298.997406,446.199310 
	C298.329987,445.457733 298.629883,442.459503 299.297638,442.124268 
	C304.088898,439.719025 304.688110,434.858032 306.640198,430.749237 
	C309.957062,423.767853 313.476593,417.254364 322.826935,416.825531 
	C327.595032,416.606842 332.298767,414.829254 337.003632,413.645081 
	C337.439789,413.535339 337.673126,412.619843 338.462036,412.004547 
	C343.615997,411.981842 348.308502,412.033051 353.043793,412.443665 
	C355.022552,416.534332 356.958588,420.265594 359.091553,424.307739 
	C360.854034,428.796906 362.569855,432.926361 363.947968,437.165558 
	C365.777466,442.793243 369.319061,446.541931 375.049988,448.511780 
	C375.744812,448.824921 376.394226,448.860626 377.413666,448.869446 
	C378.522491,448.898193 379.261230,448.953796 379.999512,449.394714 
	C378.813568,452.045227 378.178070,455.063843 376.325989,456.415741 
	C372.688080,459.071259 371.401611,462.494995 371.026917,466.550323 
	C370.718353,469.890015 369.016510,471.526855 365.738861,472.070526 
	C361.544861,472.766174 360.329803,475.658051 361.351562,479.441132 
	C362.060364,482.065460 363.283447,484.550873 364.276794,487.098358 
	C363.941254,487.002502 363.605743,486.906647 363.270233,486.810822 
	C362.314697,494.053864 361.359192,501.296906 360.509094,507.740723 
	C363.518158,509.887482 365.911926,511.595276 368.449677,513.405762 
	C363.874268,515.542847 360.439789,517.147034 357.005280,518.751099 
z"/>
<path fill="#6498FD" opacity="1.000000" stroke="none" 
	d="
M357.468140,518.827087 
	C360.439789,517.147034 363.874268,515.542847 368.449677,513.405762 
	C365.911926,511.595276 363.518158,509.887482 360.509094,507.740723 
	C361.359192,501.296906 362.314697,494.053864 363.270233,486.810822 
	C363.605743,486.906647 363.941254,487.002502 364.276794,487.098358 
	C363.283447,484.550873 362.060364,482.065460 361.351562,479.441132 
	C360.329803,475.658051 361.544861,472.766174 365.738861,472.070526 
	C369.016510,471.526855 370.718353,469.890015 371.026917,466.550323 
	C371.401611,462.494995 372.688080,459.071259 376.325989,456.415741 
	C378.178070,455.063843 378.813568,452.045227 380.342407,449.258759 
	C392.288483,445.632385 395.773346,438.832916 391.566376,427.580994 
	C389.378937,421.730560 387.247284,415.859222 385.514832,409.998108 
	C388.797394,409.836243 392.798523,411.062561 393.353302,406.940521 
	C394.423096,398.991791 400.118530,391.424164 395.287628,382.827423 
	C394.336700,381.135254 394.685272,377.925934 395.672882,376.078278 
	C398.678619,370.455139 399.947815,364.416382 401.643311,358.387909 
	C402.724762,354.542786 402.064667,353.122559 398.964233,351.381348 
	C395.302856,349.325104 393.725586,344.434692 396.145844,342.762909 
	C399.380096,340.528900 399.033691,338.226776 398.319519,335.026550 
	C397.849670,332.921265 398.409637,330.385651 399.132538,328.254456 
	C400.888092,323.078979 402.343201,317.800659 403.765106,312.628998 
	C405.814667,305.174500 402.772858,298.671906 403.740509,291.694061 
	C405.043030,282.301483 405.079254,272.717194 405.351746,263.206360 
	C405.452332,259.695892 404.723999,256.155090 404.286194,252.639053 
	C404.109711,251.221481 403.027374,249.521133 403.509033,248.484756 
	C405.751678,243.659454 408.397339,239.021439 410.945374,234.228912 
	C410.945374,228.854752 410.375488,222.920334 411.122467,217.156586 
	C411.739929,212.392105 411.024139,210.284531 406.057404,210.032974 
	C397.331787,209.591049 388.598816,209.262833 379.865265,209.016357 
	C365.910919,208.622543 351.953613,208.334564 337.529053,208.001480 
	C306.707428,208.001328 276.354340,208.001526 246.001221,208.001724 
	C239.974136,207.946014 233.947052,207.890289 227.638489,207.678497 
	C228.823486,207.118652 230.289612,206.363113 231.756439,206.361755 
	C291.729431,206.306229 351.702515,206.269135 411.675446,206.358490 
	C425.937653,206.379745 439.309448,210.114288 451.899963,217.508011 
	C447.877747,219.517426 443.585236,221.113174 439.460724,223.064148 
	C437.350250,224.062454 435.194305,225.394791 433.686981,227.123764 
	C431.996643,229.062698 430.591797,231.495438 429.869141,233.950668 
	C429.350098,235.714249 429.490601,238.326157 430.485413,239.766220 
	C434.488953,245.561783 434.152435,246.952103 427.404938,248.737122 
	C421.515472,250.295151 419.181274,252.825775 419.018494,258.189362 
	C418.633301,270.881348 417.859039,283.588104 418.182373,296.264893 
	C418.369141,303.588440 419.587280,311.121155 421.825836,318.082306 
	C423.609619,323.629333 421.829498,326.761688 417.860901,329.384064 
	C414.514740,331.595123 413.527069,332.911835 416.059296,337.104462 
	C419.720764,343.166687 418.013580,350.197388 416.514862,356.931671 
	C415.845062,359.941193 415.441071,363.507355 416.431854,366.279236 
	C418.175232,371.156860 417.498108,374.841644 414.709320,379.150848 
	C413.066498,381.689331 413.990784,385.750702 412.907928,388.827087 
	C411.705658,392.242737 409.792786,395.495972 407.722290,398.497803 
	C404.591431,403.036926 401.020325,407.270599 397.740570,411.711121 
	C397.346771,412.244263 397.479858,413.275146 397.594666,414.041504 
	C397.689301,414.673187 398.427887,415.295746 398.354095,415.852478 
	C396.739868,428.032471 404.254425,440.835449 395.309601,452.603821 
	C389.857178,459.777313 389.701294,467.849976 393.390320,476.188263 
	C394.394073,478.457001 393.472534,481.506256 394.099609,484.032227 
	C394.775024,486.752808 396.231323,489.279541 397.859985,492.323364 
	C398.506012,496.501465 398.638977,500.247009 398.400696,504.002869 
	C396.169403,506.654327 394.309326,509.295471 392.449249,511.936615 
	C392.385712,511.766815 392.322205,511.597015 392.258698,511.427246 
	C389.507355,513.876282 386.756012,516.325256 384.004639,518.774292 
	C375.313416,518.817200 366.622192,518.860107 357.468140,518.827087 
M420.393860,247.201218 
	C420.786560,247.205444 421.179291,247.209671 421.571991,247.213898 
	C421.573547,247.050934 421.586029,246.746338 421.575043,246.745483 
	C421.184265,246.715302 420.791321,246.713547 420.393860,247.201218 
z"/>
<path fill="#4DC3C1" opacity="1.000000" stroke="none" 
	d="
M197.753555,722.122742 
	C183.359589,709.979492 171.932785,695.325806 161.958389,679.489990 
	C145.074280,652.683838 136.068619,623.069397 131.105576,592.041016 
	C130.766876,589.923462 130.334091,587.820984 129.745728,584.630798 
	C126.499222,590.916382 123.713638,596.330872 120.908501,601.735168 
	C117.495193,608.311035 111.764626,610.600708 106.216614,607.624268 
	C100.876709,604.759460 99.718689,599.580139 102.996239,593.037415 
	C110.452499,578.153076 117.920784,563.274780 125.393120,548.398560 
	C129.954803,539.316895 139.205185,538.438721 145.892853,546.246521 
	C156.938583,559.142212 168.136963,571.907288 179.270508,584.727783 
	C182.482681,588.426697 183.937485,592.446045 181.184143,597.025208 
	C177.820175,602.619873 170.451477,603.727356 165.715576,599.046692 
	C161.939224,595.314392 158.685120,591.054688 155.184891,587.041504 
	C154.025421,585.712158 152.821365,584.421631 151.161621,583.409485 
	C155.702881,623.440247 168.803253,659.889771 194.977295,691.820923 
	C195.464752,694.406250 195.259949,697.020935 196.408600,697.935242 
	C201.489685,701.979370 201.579880,707.115051 200.641083,712.714661 
	C200.399155,714.157715 200.555893,715.703735 200.114380,717.068115 
	C199.546234,718.823792 198.559814,720.444092 197.753555,722.122742 
z"/>
<path fill="#54C3B9" opacity="1.000000" stroke="none" 
	d="
M518.477295,700.613586 
	C520.757080,693.559448 520.644409,692.851013 512.950867,689.243225 
	C509.972565,687.846558 509.675507,686.526245 511.006989,683.948303 
	C514.007751,678.138062 513.818115,672.174011 511.607056,666.170898 
	C509.512268,660.483337 514.478699,657.075989 516.038208,652.576904 
	C517.095276,649.527100 518.580811,646.606506 520.088013,643.740295 
	C520.815247,642.357361 521.949951,641.151978 523.048889,640.009155 
	C525.133789,637.841064 527.325745,635.775940 530.290283,632.866028 
	C527.614990,632.547058 526.427612,632.405518 525.317261,631.750366 
	C538.291138,623.339600 551.236633,615.519958 564.041321,607.476135 
	C566.429993,605.975586 568.043091,605.290344 570.567017,607.281433 
	C576.311584,611.813416 582.330078,615.998047 588.160767,620.715332 
	C585.693298,622.029907 583.302368,622.953003 581.486694,623.653992 
	C580.749207,627.609131 579.686707,632.113525 579.203552,636.679138 
	C579.071472,637.927795 580.364868,640.079285 581.538208,640.590332 
	C588.473145,643.610962 591.792175,648.112183 589.057007,655.836304 
	C588.690430,656.871460 588.933411,658.151550 589.012085,659.310181 
	C589.335754,664.076294 586.606506,667.081055 583.609131,670.412231 
	C580.247070,674.148865 577.388062,678.573547 575.314941,683.153625 
	C573.872681,686.339722 574.744812,689.863037 578.643127,691.941162 
	C580.507568,692.935120 581.812622,694.978516 583.370972,696.546570 
	C583.063843,697.031372 582.756653,697.516235 582.449524,698.001038 
	C578.834106,698.001038 575.194580,697.763550 571.616272,698.127686 
	C570.335632,698.257996 569.202942,699.841858 568.002686,700.762329 
	C551.636658,700.737732 535.270691,700.713135 518.477295,700.613586 
z"/>
<path fill="#53C1B4" opacity="1.000000" stroke="none" 
	d="
M568.456909,700.835388 
	C569.202942,699.841858 570.335632,698.257996 571.616272,698.127686 
	C575.194580,697.763550 578.834106,698.001038 582.449524,698.001038 
	C582.756653,697.516235 583.063843,697.031372 583.370972,696.546570 
	C581.812622,694.978516 580.507568,692.935120 578.643127,691.941162 
	C574.744812,689.863037 573.872681,686.339722 575.314941,683.153625 
	C577.388062,678.573547 580.247070,674.148865 583.609131,670.412231 
	C586.606506,667.081055 589.335754,664.076294 589.012085,659.310181 
	C588.933411,658.151550 588.690430,656.871460 589.057007,655.836304 
	C591.792175,648.112183 588.473145,643.610962 581.538208,640.590332 
	C580.364868,640.079285 579.071472,637.927795 579.203552,636.679138 
	C579.686707,632.113525 580.749207,627.609131 581.486694,623.653992 
	C583.302368,622.953003 585.693298,622.029907 588.489441,620.874268 
	C600.188232,626.191589 611.369934,631.987732 622.821960,637.188782 
	C628.670471,639.844910 634.824219,642.392639 641.620667,640.818115 
	C643.638428,641.776001 645.656189,642.733887 647.673950,643.691772 
	C645.997314,645.765564 644.612427,649.227051 642.589233,649.652405 
	C636.566833,650.918518 635.797180,655.204163 635.001465,659.876587 
	C634.117737,665.065552 633.745117,670.417053 632.193726,675.400024 
	C629.540710,683.921387 628.525146,692.515991 629.006226,701.356750 
	C629.059937,702.343750 628.849548,703.566956 629.343872,704.272888 
	C633.117188,709.661377 637.015686,714.963074 640.944092,720.240479 
	C641.266174,720.673096 642.098450,720.725769 643.046997,721.091003 
	C643.938110,717.484253 644.891479,714.109802 645.583313,710.682617 
	C646.210938,707.573181 648.098999,706.647766 651.366089,706.994385 
	C651.825012,715.153076 651.834839,723.315063 651.978760,731.474670 
	C652.067017,736.473206 650.008606,740.233459 645.664429,742.541016 
	C641.256531,744.882385 636.861633,744.195129 632.982056,741.287231 
	C617.792603,729.901855 602.679871,718.414185 587.726135,706.574707 
	C588.332886,705.391174 589.289246,704.123657 589.078979,703.885315 
	C588.138550,702.819336 586.865540,702.046875 585.712585,701.168457 
	C585.131348,702.151184 584.550049,703.133972 583.968811,704.116699 
	C579.628479,699.860840 574.098328,701.189270 568.456909,700.835388 
z"/>
<path fill="#639DFD" opacity="1.000000" stroke="none" 
	d="
M338.000610,412.078430 
	C337.673126,412.619843 337.439789,413.535339 337.003632,413.645081 
	C332.298767,414.829254 327.595032,416.606842 322.826935,416.825531 
	C313.476593,417.254364 309.957062,423.767853 306.640198,430.749237 
	C304.688110,434.858032 304.088898,439.719025 299.297638,442.124268 
	C298.629883,442.459503 298.329987,445.457733 298.997406,446.199310 
	C302.514954,450.107422 300.580780,453.391754 298.580170,457.011505 
	C297.378693,459.185425 296.135742,461.724396 296.135406,464.099457 
	C296.134552,470.490021 294.769989,476.319092 292.744141,482.437195 
	C290.944214,487.872955 292.102631,494.331696 292.193329,500.335297 
	C292.256897,504.545135 293.640503,508.675934 291.024658,512.835693 
	C290.036743,514.406738 290.917480,517.152771 291.001770,519.758789 
	C280.305359,528.487732 269.553558,536.820923 258.472534,545.290405 
	C257.711212,541.839294 257.532623,538.196899 256.768555,534.681702 
	C256.131500,531.750793 254.704590,529.560242 251.179031,528.449036 
	C249.856430,528.032227 248.895126,523.233459 249.471848,520.843445 
	C250.195938,517.842529 251.299576,515.255493 249.328217,512.443115 
	C249.151123,512.190491 248.994034,511.733826 249.102478,511.498596 
	C252.966995,503.116577 246.318039,494.967773 248.557953,486.554657 
	C249.114044,484.466003 248.182999,482.024445 248.262344,479.756500 
	C248.406250,475.642731 247.372223,471.084686 252.133453,468.413330 
	C252.519211,468.196869 252.071655,466.216553 251.772156,465.121307 
	C251.296890,463.383209 249.612228,461.117035 250.203506,460.095703 
	C252.674759,455.827026 251.064209,452.221161 249.401276,448.433044 
	C249.265198,448.123016 249.698044,447.563232 250.520920,447.006805 
	C262.388489,450.789825 269.429871,447.540863 273.481842,436.546112 
	C276.068665,429.526764 278.427887,422.416779 281.264404,415.501373 
	C281.897491,413.957886 284.092621,412.034821 285.585663,412.020081 
	C303.055420,411.847748 320.528442,412.006866 338.000610,412.078430 
z"/>
<path fill="#51C2BC" opacity="1.000000" stroke="none" 
	d="
M197.922867,722.417236 
	C198.559814,720.444092 199.546234,718.823792 200.114380,717.068115 
	C200.555893,715.703735 200.399155,714.157715 200.641083,712.714661 
	C201.579880,707.115051 201.489685,701.979370 196.408600,697.935242 
	C195.259949,697.020935 195.464752,694.406250 195.079041,692.134033 
	C210.981110,709.148865 228.809494,724.139160 249.555450,735.580933 
	C267.442566,745.445923 286.492523,752.054749 306.587189,757.190674 
	C305.364105,758.457458 303.864594,759.189331 301.648193,760.271057 
	C303.806824,762.103760 305.487183,763.910522 307.507782,765.172302 
	C312.873413,768.523193 312.958466,768.971069 308.565613,773.321472 
	C307.712952,774.165955 307.419006,775.574646 306.867371,776.723083 
	C271.741241,770.693726 240.450211,756.010071 212.192657,734.584229 
	C207.302963,730.876709 202.782944,726.681641 197.922867,722.417236 
z"/>
<path fill="#55C5BC" opacity="1.000000" stroke="none" 
	d="
M307.163025,776.900391 
	C307.419006,775.574646 307.712952,774.165955 308.565613,773.321472 
	C312.958466,768.971069 312.873413,768.523193 307.507782,765.172302 
	C305.487183,763.910522 303.806824,762.103760 301.648193,760.271057 
	C303.864594,759.189331 305.364105,758.457458 306.931335,757.368774 
	C307.552368,757.056152 308.105713,757.100464 308.890869,757.661011 
	C309.544403,758.722412 309.966156,759.267517 310.387909,759.812683 
	C310.925262,759.208801 311.462646,758.604919 312.000000,758.000977 
	C312.855286,758.076904 313.710541,758.152771 314.843658,758.763306 
	C316.684570,762.473999 318.296936,760.931702 319.909760,759.347961 
	C320.094727,759.329407 320.279663,759.310852 320.754456,759.714355 
	C322.718597,763.161377 324.367676,763.081848 325.993103,760.096130 
	C327.397552,760.162903 328.802032,760.229675 330.622101,760.753418 
	C331.479828,761.754883 331.921906,762.299255 332.363983,762.843689 
	C332.909119,762.230530 333.454254,761.617371 333.999420,761.004211 
	C337.052277,761.167664 340.105133,761.331177 343.642395,762.034058 
	C349.944519,762.774109 355.762085,762.984497 361.581390,763.116028 
	C361.718109,763.119141 361.874847,762.237732 362.022247,761.768921 
	C373.871063,760.238464 385.774139,759.032471 397.549591,757.063354 
	C405.386292,755.752808 413.053101,753.400940 420.772797,751.424622 
	C426.434265,749.975220 431.131805,751.704041 433.621338,756.329224 
	C435.940643,760.638123 435.057098,765.228577 431.144318,768.393066 
	C430.147308,769.199402 428.888916,769.798950 427.653748,770.177612 
	C388.487823,782.184204 348.747772,784.861145 308.398560,777.412842 
	C308.075653,777.353271 307.771576,777.191711 307.163025,776.900391 
z"/>
<path fill="#6A8CFC" opacity="1.000000" stroke="none" 
	d="
M668.990356,171.389984 
	C669.232910,173.268005 669.344238,174.848663 669.485413,176.853241 
	C667.912170,176.853241 666.437317,177.100052 665.078308,176.807861 
	C660.658203,175.857483 657.066284,176.281555 655.479309,181.342682 
	C655.287354,181.954803 654.218140,182.291870 653.221375,182.903992 
	C642.576599,175.437378 632.829834,166.856186 621.822388,160.436920 
	C605.551147,150.947952 588.383850,142.995316 571.454956,133.879181 
	C573.270508,129.257767 575.515625,125.310844 580.604797,124.730019 
	C584.503967,124.284996 585.456177,122.069740 585.083130,118.673340 
	C605.373169,126.376190 624.122314,136.984802 641.713196,149.559235 
	C651.097534,156.267380 659.831543,163.885330 668.990356,171.389984 
z"/>
<path fill="#6498FD" opacity="1.000000" stroke="none" 
	d="
M411.004242,100.174828 
	C426.350098,98.505356 441.660431,96.244492 457.051025,95.318893 
	C475.513672,94.208549 493.976440,95.367004 512.625488,99.015381 
	C511.388275,100.958687 509.875916,102.513733 508.158081,103.792892 
	C506.334595,105.150719 503.819275,105.851013 502.479034,107.533745 
	C498.924438,111.996605 492.457947,114.166008 486.885010,112.568939 
	C484.668457,111.933723 481.393555,110.178421 481.002502,114.876839 
	C457.440887,114.167923 434.051300,115.798019 410.426025,119.618301 
	C409.768036,116.978592 409.208099,114.731071 409.377777,112.540070 
	C409.698334,108.401161 410.438477,104.294746 411.004242,100.174828 
z"/>
<path fill="#6592FD" opacity="1.000000" stroke="none" 
	d="
M481.440002,114.952988 
	C481.393555,110.178421 484.668457,111.933723 486.885010,112.568939 
	C492.457947,114.166008 498.924438,111.996605 502.479034,107.533745 
	C503.819275,105.851013 506.334595,105.150719 508.158081,103.792892 
	C509.875916,102.513733 511.388275,100.958687 512.998291,99.128754 
	C536.660278,101.518524 559.296387,108.130142 581.349304,116.931267 
	C582.424866,117.360527 583.498840,117.793823 584.828369,118.449280 
	C585.456177,122.069740 584.503967,124.284996 580.604797,124.730019 
	C575.515625,125.310844 573.270508,129.257767 571.157227,133.679642 
	C570.829529,133.996429 570.656311,134.003448 570.080933,133.740143 
	C569.363098,133.341873 569.047424,133.213943 568.731750,133.086029 
	C549.960999,128.201065 531.294983,122.846794 512.376648,118.622780 
	C502.438232,116.403763 492.058136,116.163139 481.440002,114.952988 
z"/>
<path fill="#61A0FD" opacity="1.000000" stroke="none" 
	d="
M410.592957,100.143280 
	C410.438477,104.294746 409.698334,108.401161 409.377777,112.540070 
	C409.208099,114.731071 409.768036,116.978592 410.000793,119.611877 
	C393.243927,124.735558 376.496429,129.489899 359.719269,134.137115 
	C354.029816,135.713074 348.752930,132.824234 347.033203,127.465797 
	C345.401337,122.381119 348.102295,116.789574 353.557251,115.284966 
	C372.394012,110.089302 391.301270,105.149162 410.592957,100.143280 
z"/>
<path fill="#5757FD" opacity="1.000000" stroke="none" 
	d="
M758.448120,791.372253 
	C764.122864,788.390381 768.805908,789.240601 771.379883,793.450439 
	C774.016846,797.763306 772.805298,802.649353 768.019470,805.936096 
	C760.761902,810.920166 753.453674,815.835388 746.061279,820.616577 
	C740.780579,824.032104 735.823059,823.250793 732.936951,818.863342 
	C730.151794,814.629150 731.618286,809.613953 736.705505,806.143494 
	C743.841553,801.275513 750.998169,796.437622 758.448120,791.372253 
z"/>
<path fill="#7A88FC" opacity="1.000000" stroke="none" 
	d="
M722.094482,765.171387 
	C730.383911,767.107056 732.658691,771.233887 729.826294,778.650879 
	C727.276489,785.327942 724.687500,791.990662 722.045105,798.631653 
	C720.010681,803.744568 715.182190,806.160095 710.494263,804.527100 
	C705.419250,802.759277 703.537354,798.508606 705.640625,792.762939 
	C708.267151,785.587524 710.735840,778.299500 714.129272,771.486755 
	C715.470337,768.794373 719.116699,767.250244 722.094482,765.171387 
z"/>
<path fill="#7A88FC" opacity="1.000000" stroke="none" 
	d="
M760.065186,835.177246 
	C766.202637,835.184814 771.853333,835.092590 777.498657,835.226929 
	C783.004883,835.357910 786.132996,838.706299 786.045776,844.062073 
	C785.964539,849.045898 782.810669,852.021606 777.306091,852.084961 
	C769.181519,852.178467 761.038025,852.491699 752.936523,852.065796 
	C747.321350,851.770569 744.278076,847.684509 745.085022,842.667969 
	C745.804016,838.198669 748.529846,835.580933 753.099548,835.203430 
	C755.244507,835.026245 757.416382,835.175354 760.065186,835.177246 
z"/>
<path fill="#5757FD" opacity="1.000000" stroke="none" 
	d="
M217.022720,900.984680 
	C216.867493,883.224915 216.672913,865.465393 216.583115,847.705322 
	C216.558914,842.920654 219.264053,839.920776 223.253082,840.204163 
	C227.802155,840.527161 229.450912,843.465942 229.408493,847.690735 
	C229.300140,858.479919 229.197556,869.269043 228.631302,880.523071 
	C220.894592,881.469360 218.109680,884.392212 217.950592,891.302002 
	C217.876160,894.534973 217.346207,897.757446 217.022720,900.984680 
z"/>
<path fill="#54C5BF" opacity="1.000000" stroke="none" 
	d="
M498.846863,396.318512 
	C502.077484,396.976929 505.093567,397.489014 508.560974,398.386169 
	C509.389191,400.195251 509.322815,402.050903 510.217987,402.970428 
	C514.676941,407.550598 511.706360,410.439117 508.654388,414.111938 
	C506.410522,416.812195 504.787384,420.500397 504.189911,423.972443 
	C503.504181,427.957428 501.981781,429.540741 498.069336,428.533386 
	C497.966064,417.494293 497.898560,406.922943 497.831055,396.351593 
	C497.831085,396.351593 497.986755,396.160736 498.068787,396.069092 
	C498.311310,396.042328 498.471802,396.107269 498.846863,396.318512 
z"/>
<path fill="#6F84FC" opacity="1.000000" stroke="none" 
	d="
M216.925980,901.438354 
	C217.346207,897.757446 217.876160,894.534973 217.950592,891.302002 
	C218.109680,884.392212 220.894592,881.469360 228.574783,880.988281 
	C229.027695,886.016541 229.075729,891.044495 228.678619,896.537659 
	C222.890747,897.912109 218.144012,903.284668 217.962006,908.402039 
	C217.907211,909.942993 217.337234,911.465637 217.003265,912.996643 
	C216.945251,909.295105 216.887253,905.593628 216.925980,901.438354 
z"/>
<path fill="#7A88FC" opacity="1.000000" stroke="none" 
	d="
M217.020126,913.356873 
	C217.337234,911.465637 217.907211,909.942993 217.962006,908.402039 
	C218.144012,903.284668 222.890747,897.912109 228.617950,897.001404 
	C229.047501,901.468384 228.995819,905.940491 229.168335,910.403992 
	C229.305984,913.964539 228.163986,916.752991 224.603714,917.698792 
	C221.096436,918.630432 218.498062,917.065552 217.020126,913.356873 
z"/>
<path fill="#6292FD" opacity="1.000000" stroke="none" 
	d="
M384.464294,518.843628 
	C386.756012,516.325256 389.507355,513.876282 392.258698,511.427246 
	C392.322205,511.597015 392.385712,511.766815 392.449249,511.936615 
	C394.309326,509.295471 396.169403,506.654327 398.463867,504.466431 
	C398.939667,509.552216 398.981018,514.184692 398.937592,518.917664 
	C398.852814,519.018127 398.650452,519.185974 398.650452,519.185974 
	C394.074951,519.094971 389.499451,519.003967 384.464294,518.843628 
z"/>
<path fill="#51C2BC" opacity="1.000000" stroke="none" 
	d="
M361.553467,761.726685 
	C361.874847,762.237732 361.718109,763.119141 361.581390,763.116028 
	C355.762085,762.984497 349.944519,762.774109 344.050598,762.148315 
	C349.677856,761.710327 355.381287,761.697449 361.553467,761.726685 
z"/>
<path fill="#4DC3C1" opacity="1.000000" stroke="none" 
	d="
M398.836975,527.425842 
	C399.240540,527.501465 399.883514,528.048584 399.879913,528.591370 
	C399.807281,539.554077 399.660400,550.516235 399.211121,561.763916 
	C398.854279,550.664673 398.814819,539.280029 398.836975,527.425842 
z"/>
<path fill="#4DC3C1" opacity="1.000000" stroke="none" 
	d="
M398.837677,580.425720 
	C399.240295,580.501099 399.883118,581.048096 399.879517,581.590759 
	C399.809082,592.218689 399.663452,602.846130 399.217194,613.759644 
	C398.859772,602.995483 398.818359,591.945435 398.837677,580.425720 
z"/>
<path fill="#54C3B9" opacity="1.000000" stroke="none" 
	d="
M584.113525,704.374634 
	C584.550049,703.133972 585.131348,702.151184 585.712585,701.168457 
	C586.865540,702.046875 588.138550,702.819336 589.078979,703.885315 
	C589.289246,704.123657 588.332886,705.391174 587.518860,706.288818 
	C586.168823,705.806030 585.213501,705.219299 584.113525,704.374634 
z"/>
<path fill="#51C2BC" opacity="1.000000" stroke="none" 
	d="
M325.638763,760.003052 
	C324.367676,763.081848 322.718597,763.161377 321.023621,759.787048 
	C322.430145,759.595093 323.857269,759.752563 325.638763,760.003052 
z"/>
<path fill="#4DC3C1" opacity="1.000000" stroke="none" 
	d="
M398.834564,564.416748 
	C399.103851,567.799255 399.313751,571.643860 399.210815,575.768066 
	C398.857056,572.324646 398.816101,568.601807 398.834564,564.416748 
z"/>
<path fill="#51C2BC" opacity="1.000000" stroke="none" 
	d="
M319.528564,759.209595 
	C318.296936,760.931702 316.684570,762.473999 315.124146,758.923462 
	C316.466980,758.723145 317.807190,758.897156 319.528564,759.209595 
z"/>
<path fill="#51C2BC" opacity="1.000000" stroke="none" 
	d="
M333.715424,760.865845 
	C333.454254,761.617371 332.909119,762.230530 332.363983,762.843689 
	C331.921906,762.299255 331.479828,761.754883 331.018738,760.895935 
	C331.810333,760.630127 332.620880,760.678833 333.715424,760.865845 
z"/>
<path fill="#51C2BC" opacity="1.000000" stroke="none" 
	d="
M311.654419,757.884766 
	C311.462646,758.604919 310.925262,759.208801 310.387909,759.812683 
	C309.966156,759.267517 309.544403,758.722412 309.136719,757.795593 
	C309.870117,757.532104 310.589478,757.650269 311.654419,757.884766 
z"/>
<path fill="#4DC3C1" opacity="1.000000" stroke="none" 
	d="
M400.010315,519.079041 
	C399.811707,519.629333 399.613098,520.179565 399.154724,520.882568 
	C398.840088,520.625183 398.785187,520.215027 398.690369,519.495422 
	C398.650452,519.185974 398.852814,519.018127 399.181274,518.996887 
	C399.676605,519.010132 399.843475,519.044556 400.010315,519.079041 
z"/>
<path fill="#6A8CFC" opacity="1.000000" stroke="none" 
	d="
M568.865479,133.321487 
	C569.047424,133.213943 569.363098,133.341873 569.827393,133.682312 
	C569.650452,133.782211 569.324829,133.669586 568.865479,133.321487 
z"/>
<path fill="#4DC3C1" opacity="1.000000" stroke="none" 
	d="
M398.874878,618.239990 
	C399.048401,618.257751 399.185242,618.535034 399.149780,618.908691 
	C398.931030,618.836487 398.884583,618.668030 398.874878,618.239990 
z"/>
<path fill="#61A0FD" opacity="1.000000" stroke="none" 
	d="
M246.033813,208.347626 
	C276.354340,208.001526 306.707428,208.001328 337.529449,208.393188 
	C337.046356,210.597870 336.529266,213.228516 335.035736,214.022507 
	C333.027191,215.090347 330.268921,214.914078 327.825897,214.966537 
	C321.318939,215.106201 318.966827,216.484283 318.043884,222.979111 
	C317.570465,226.310837 319.077240,229.923965 319.832428,234.226669 
	C316.241943,237.107834 318.317017,239.485397 322.329529,241.966431 
	C326.173767,244.343445 325.595093,245.604340 322.285858,248.557434 
	C319.922546,250.666397 317.851501,253.916565 317.212738,256.983032 
	C315.658356,264.444946 315.013947,272.096466 313.624847,279.789856 
	C304.876923,281.307861 299.840942,286.308990 296.876007,294.147644 
	C288.921875,315.176819 280.751862,336.124969 272.568604,357.066589 
	C269.924591,363.832855 266.792389,370.410339 264.213989,377.199707 
	C261.724213,383.755676 259.660461,390.473450 257.409607,397.120148 
	C252.559509,398.311279 250.533401,402.000275 250.126617,406.408569 
	C249.872192,409.165771 249.054901,410.640198 246.791733,412.373962 
	C244.472214,414.150879 243.266205,417.381317 241.602234,419.930573 
	C239.584534,418.849060 236.861740,417.389648 232.913986,415.273651 
	C232.913986,410.895020 233.254303,405.185120 232.761993,399.547943 
	C232.535660,396.956238 231.237640,393.952301 229.427628,392.122467 
	C226.671677,389.336426 226.510300,386.660339 228.804749,383.610077 
	C232.198746,379.098022 235.111526,374.160889 237.696136,369.130859 
	C238.910446,366.767670 237.785522,364.357513 236.598312,361.567230 
	C234.145309,355.801910 231.208572,350.377563 233.824448,342.517883 
	C236.128464,335.595276 238.773026,327.053833 235.589371,318.875397 
	C235.019302,317.410980 235.121780,314.421875 235.998825,313.874084 
	C239.942108,311.411255 238.952881,308.007629 239.126938,304.364929 
	C239.837540,289.493927 240.888260,274.633850 242.171402,259.800659 
	C242.399231,257.167023 244.328461,254.680603 245.667908,251.688705 
	C242.763901,247.811417 239.329010,243.524246 242.827560,237.812469 
	C243.116257,237.341141 243.064514,236.377716 242.771179,235.877243 
	C239.804398,230.815460 241.325577,226.122253 243.269852,221.113968 
	C244.788696,217.201584 245.176178,212.849960 246.033813,208.347626 
z"/>
<path fill="#FCFCFE" opacity="1.000000" stroke="none" 
	d="
M257.327698,397.495880 
	C259.660461,390.473450 261.724213,383.755676 264.213989,377.199707 
	C266.792389,370.410339 269.924591,363.832855 272.568604,357.066589 
	C280.751862,336.124969 288.921875,315.176819 296.876007,294.147644 
	C299.840942,286.308990 304.876923,281.307861 314.083191,279.861023 
	C316.083923,279.828918 317.248138,279.855682 318.412384,279.857269 
	C330.753845,279.874084 336.009033,283.504089 340.536987,295.193115 
	C342.278839,299.689789 343.938171,304.218506 345.686859,308.712463 
	C357.139618,338.145233 368.606598,367.572510 380.096802,397.369385 
	C381.699860,401.339233 383.275085,404.941254 384.803650,408.793823 
	C384.868134,409.362000 384.979279,409.679657 385.090424,409.997345 
	C387.247284,415.859222 389.378937,421.730560 391.566376,427.580994 
	C395.773346,438.832916 392.288483,445.632385 380.342926,448.873474 
	C379.261230,448.953796 378.522491,448.898193 377.204468,448.681702 
	C376.085022,448.425354 375.544800,448.329834 375.004578,448.234344 
	C369.319061,446.541931 365.777466,442.793243 363.947968,437.165558 
	C362.569855,432.926361 360.854034,428.796906 359.076111,423.934387 
	C358.089478,420.967773 357.538513,418.573456 356.468414,416.439453 
	C355.654510,414.816284 354.181061,413.523834 353.001038,412.084259 
	C348.308502,412.033051 343.615997,411.981842 338.462036,412.004517 
	C320.528442,412.006866 303.055420,411.847748 285.585663,412.020081 
	C284.092621,412.034821 281.897491,413.957886 281.264404,415.501373 
	C278.427887,422.416779 276.068665,429.526764 273.481842,436.546112 
	C269.429871,447.540863 262.388489,450.789825 250.828140,446.823547 
	C243.376190,440.228912 242.536072,436.169128 246.112793,427.002533 
	C249.891357,417.318573 253.540268,407.584045 257.327698,397.495880 
M309.893829,335.378571 
	C304.010468,351.749817 298.127075,368.121063 292.125000,384.822571 
	C309.909912,384.822571 327.139618,384.822571 344.975769,384.822571 
	C336.142334,360.470306 327.467529,336.555389 318.403168,311.566559 
	C315.400421,319.989807 312.787415,327.319702 309.893829,335.378571 
z"/>
<path fill="#FCFDFD" opacity="1.000000" stroke="none" 
	d="
M641.856567,640.562378 
	C634.824219,642.392639 628.670471,639.844910 622.821960,637.188782 
	C611.369934,631.987732 600.188232,626.191589 588.565979,620.482788 
	C582.330078,615.998047 576.311584,611.813416 570.567017,607.281433 
	C568.043091,605.290344 566.429993,605.975586 564.041321,607.476135 
	C551.236633,615.519958 538.291138,623.339600 525.152466,631.467896 
	C523.457153,632.326965 522.003784,632.954834 519.983337,633.795044 
	C518.925476,634.297852 518.434631,634.588196 517.943787,634.878601 
	C511.968323,636.926514 506.093048,639.370728 499.989929,640.913696 
	C493.557251,642.539917 487.016632,637.820190 485.335632,631.127930 
	C483.693970,624.592407 486.965088,619.326660 493.981018,617.071838 
	C512.503784,611.118652 529.771484,602.659668 545.491272,591.137268 
	C546.816467,590.165955 548.068054,589.094299 549.905945,587.629028 
	C547.722351,584.900391 545.672180,582.385986 543.672485,579.832031 
	C530.302490,562.755798 520.298279,543.859131 513.328735,523.352661 
	C512.562805,521.098999 512.444641,518.625183 511.839294,515.195190 
	C506.649170,515.195190 500.740051,515.198486 494.830933,515.194397 
	C486.677399,515.188721 483.487183,513.261292 481.707458,507.276306 
	C480.008606,501.563293 482.164307,496.948212 489.208862,492.519806 
	C511.579834,492.279572 533.230103,492.279572 555.124023,492.279572 
	C555.124023,485.956329 555.393860,480.637817 555.055725,475.358215 
	C554.634094,468.775818 557.117188,464.121796 563.432312,461.188293 
	C574.886841,460.506470 579.087280,464.459686 579.091064,475.480255 
	C579.092957,480.906006 579.091431,486.331726 579.091431,491.969604 
	C600.873657,491.969604 621.938110,491.969604 643.002563,491.969604 
	C650.337646,494.424805 653.598511,498.770508 653.058777,505.371277 
	C652.578247,511.248993 648.571167,515.053406 642.560669,515.178772 
	C637.404175,515.286438 632.234009,515.078613 627.093445,515.394470 
	C625.661560,515.482361 623.393677,516.665710 623.061890,517.800537 
	C615.539612,543.525696 603.508545,566.802734 585.187439,587.805298 
	C592.495789,592.612305 599.186401,597.875610 606.619324,601.694458 
	C617.093201,607.075745 628.026123,611.610046 638.946472,616.055298 
	C643.906006,618.074158 648.906616,619.755554 649.780945,625.756958 
	C650.728577,632.262268 647.255859,636.826172 641.856567,640.562378 
M544.585083,515.206970 
	C541.825867,515.206970 539.066650,515.206970 535.507080,515.206970 
	C542.936401,536.410034 552.860229,554.986633 567.916626,571.042297 
	C582.059143,554.438721 592.338013,536.523865 598.494507,515.203796 
	C580.337341,515.203796 562.950195,515.203796 544.585083,515.206970 
z"/>
<path fill="#53C4BB" opacity="1.000000" stroke="none" 
	d="
M562.992310,461.222076 
	C557.117188,464.121796 554.634094,468.775818 555.055725,475.358215 
	C555.393860,480.637817 555.124023,485.956329 555.124023,492.279572 
	C533.230103,492.279572 511.579834,492.279572 489.459717,492.319702 
	C490.173309,491.574005 491.343628,490.130066 492.542236,490.106232 
	C502.425140,489.909546 512.313293,489.969452 522.199890,489.965607 
	C528.263550,489.963257 534.332520,489.834503 540.388916,490.050385 
	C544.354980,490.191772 545.133606,488.211700 545.043579,484.816223 
	C544.936157,480.763123 542.341003,480.869019 539.533569,481.075989 
	C530.902161,481.712280 522.271362,482.356232 513.640564,483.000549 
	C506.846313,483.507721 502.194672,478.971191 497.411194,475.407501 
	C496.130157,474.453125 496.040710,469.415741 497.333649,467.914551 
	C503.322754,460.960907 500.607117,453.072571 500.575500,445.512756 
	C500.565247,443.059662 499.387024,440.611450 498.351074,437.629608 
	C498.007812,434.399200 498.056427,431.700134 498.105072,429.001099 
	C501.981781,429.540741 503.504181,427.957428 504.189911,423.972443 
	C504.787384,420.500397 506.410522,416.812195 508.654388,414.111938 
	C511.706360,410.439117 514.676941,407.550598 510.217987,402.970428 
	C509.322815,402.050903 509.389191,400.195251 509.006165,398.388672 
	C533.020264,398.005646 557.040405,398.005188 581.487915,398.380920 
	C581.936340,400.485291 581.859314,402.221619 582.001343,403.939850 
	C582.216553,406.545319 583.407227,409.382385 582.723328,411.687988 
	C581.063293,417.284912 583.000366,424.084290 577.424255,428.440247 
	C577.114441,428.682281 577.053833,429.366058 577.041992,429.848297 
	C576.876221,436.604187 573.720703,439.789093 566.832642,441.457031 
	C563.420898,442.283142 560.637451,447.394653 558.618103,451.133514 
	C558.089417,452.112457 561.478516,455.207367 563.651184,458.108917 
	C563.599243,458.354401 563.295776,459.788239 562.992310,461.222076 
z"/>
<path fill="#53C2B6" opacity="1.000000" stroke="none" 
	d="
M563.432373,461.188293 
	C563.295776,459.788239 563.599243,458.354401 563.651184,458.108917 
	C561.478516,455.207367 558.089417,452.112457 558.618103,451.133514 
	C560.637451,447.394653 563.420898,442.283142 566.832642,441.457031 
	C573.720703,439.789093 576.876221,436.604187 577.041992,429.848297 
	C577.053833,429.366058 577.114441,428.682281 577.424255,428.440247 
	C583.000366,424.084290 581.063293,417.284912 582.723328,411.687988 
	C583.407227,409.382385 582.216553,406.545319 582.001343,403.939850 
	C581.859314,402.221619 581.936340,400.485291 581.956421,398.383728 
	C603.769104,398.010406 625.540588,398.010406 646.354736,398.010406 
	C647.049561,401.058899 648.083069,403.372437 647.976074,405.631927 
	C647.805420,409.232391 647.203918,412.911316 646.026001,416.292786 
	C645.745911,417.096771 642.401489,417.281128 640.569397,417.022461 
	C630.223999,415.561768 626.548157,419.431427 628.724365,429.664337 
	C629.274170,432.249268 629.953064,434.891327 629.916748,437.497955 
	C629.850220,442.262695 629.895142,446.632538 634.236572,450.012756 
	C636.646606,451.889221 635.988953,454.584564 634.328369,457.169769 
	C629.301941,464.994629 631.253906,472.343506 639.382324,477.186493 
	C640.798462,478.030182 642.249329,478.895538 643.452881,480.002319 
	C649.341980,485.417999 649.261108,487.166870 643.064331,491.619873 
	C621.938110,491.969604 600.873657,491.969604 579.091431,491.969604 
	C579.091431,486.331726 579.092957,480.906006 579.091064,475.480255 
	C579.087280,464.459686 574.886841,460.506470 563.432373,461.188293 
z"/>
<path fill="#2E83CA" opacity="1.000000" stroke="none" 
	d="
M498.069336,428.533386 
	C498.056427,431.700134 498.007812,434.399200 497.964203,437.547974 
	C497.121887,442.364288 496.568176,446.812439 495.381104,451.084625 
	C485.329834,487.258728 461.729309,509.441559 425.250641,517.527954 
	C417.423004,519.263184 409.059387,518.580566 400.476501,519.045410 
	C399.843475,519.044556 399.676605,519.010132 399.266052,518.896423 
	C398.981018,514.184692 398.939667,509.552216 398.835083,504.456177 
	C398.638977,500.247009 398.506012,496.501465 398.224548,492.374481 
	C398.702271,484.241455 398.903931,476.426208 400.053864,468.753052 
	C401.799866,457.102386 405.228516,445.944702 412.394684,436.280975 
	C416.283844,431.036316 419.349945,424.839539 424.181488,420.699188 
	C439.102386,407.912964 455.621796,397.939972 476.069519,396.946960 
	C483.024658,396.609131 489.985779,396.394073 497.387604,396.237244 
	C497.898560,406.922943 497.966064,417.494293 498.069336,428.533386 
z"/>
<path fill="#54C3B9" opacity="1.000000" stroke="none" 
	d="
M518.109253,635.124268 
	C518.434631,634.588196 518.925476,634.297852 519.708130,633.993530 
	C519.424866,634.443054 518.849731,634.906494 518.109253,635.124268 
z"/>
<path fill="#639DFD" opacity="1.000000" stroke="none" 
	d="
M353.043793,412.443665 
	C354.181061,413.523834 355.654510,414.816284 356.468414,416.439453 
	C357.538513,418.573456 358.089478,420.967773 358.879150,423.623505 
	C356.958588,420.265594 355.022552,416.534332 353.043793,412.443665 
z"/>
<path fill="#6498FD" opacity="1.000000" stroke="none" 
	d="
M375.049988,448.511780 
	C375.544800,448.329834 376.085022,448.425354 376.834412,448.708557 
	C376.394226,448.860626 375.744812,448.824921 375.049988,448.511780 
z"/>
<path fill="#6298FD" opacity="1.000000" stroke="none" 
	d="
M385.514832,409.998108 
	C384.979279,409.679657 384.868134,409.362000 384.837341,408.361633 
	C383.301422,404.119843 381.685181,400.560730 380.068909,397.001587 
	C368.606598,367.572510 357.139618,338.145233 345.686859,308.712463 
	C343.938171,304.218506 342.278839,299.689789 340.536987,295.193115 
	C336.009033,283.504089 330.753845,279.874084 318.412384,279.857269 
	C317.248138,279.855682 316.083923,279.828918 314.461365,279.742737 
	C315.013947,272.096466 315.658356,264.444946 317.212738,256.983032 
	C317.851501,253.916565 319.922546,250.666397 322.285858,248.557434 
	C325.595093,245.604340 326.173767,244.343445 322.329529,241.966431 
	C318.317017,239.485397 316.241943,237.107834 319.832428,234.226669 
	C319.077240,229.923965 317.570465,226.310837 318.043884,222.979111 
	C318.966827,216.484283 321.318939,215.106201 327.825897,214.966537 
	C330.268921,214.914078 333.027191,215.090347 335.035736,214.022507 
	C336.529266,213.228516 337.046356,210.597870 337.997955,208.393555 
	C351.953613,208.334564 365.910919,208.622543 379.865265,209.016357 
	C388.598816,209.262833 397.331787,209.591049 406.057404,210.032974 
	C411.024139,210.284531 411.739929,212.392105 411.122467,217.156586 
	C410.375488,222.920334 410.945374,228.854752 410.945374,234.228912 
	C408.397339,239.021439 405.751678,243.659454 403.509033,248.484756 
	C403.027374,249.521133 404.109711,251.221481 404.286194,252.639053 
	C404.723999,256.155090 405.452332,259.695892 405.351746,263.206360 
	C405.079254,272.717194 405.043030,282.301483 403.740509,291.694061 
	C402.772858,298.671906 405.814667,305.174500 403.765106,312.628998 
	C402.343201,317.800659 400.888092,323.078979 399.132538,328.254456 
	C398.409637,330.385651 397.849670,332.921265 398.319519,335.026550 
	C399.033691,338.226776 399.380096,340.528900 396.145844,342.762909 
	C393.725586,344.434692 395.302856,349.325104 398.964233,351.381348 
	C402.064667,353.122559 402.724762,354.542786 401.643311,358.387909 
	C399.947815,364.416382 398.678619,370.455139 395.672882,376.078278 
	C394.685272,377.925934 394.336700,381.135254 395.287628,382.827423 
	C400.118530,391.424164 394.423096,398.991791 393.353302,406.940521 
	C392.798523,411.062561 388.797394,409.836243 385.514832,409.998108 
z"/>
<path fill="#6292FD" opacity="1.000000" stroke="none" 
	d="
M420.396240,246.954514 
	C420.791321,246.713547 421.184265,246.715302 421.575043,246.745483 
	C421.586029,246.746338 421.573547,247.050934 421.571991,247.213898 
	C421.179291,247.209671 420.786560,247.205444 420.396240,246.954514 
z"/>
<path fill="#639DFD" opacity="1.000000" stroke="none" 
	d="
M310.034119,335.014099 
	C312.787415,327.319702 315.400421,319.989807 318.403168,311.566559 
	C327.467529,336.555389 336.142334,360.470306 344.975769,384.822571 
	C327.139618,384.822571 309.909912,384.822571 292.125000,384.822571 
	C298.127075,368.121063 304.010468,351.749817 310.034119,335.014099 
z"/>
<path fill="#6498FD" opacity="1.000000" stroke="none" 
	d="
M380.096771,397.369385 
	C381.685181,400.560730 383.301422,404.119843 384.884003,408.111145 
	C383.275085,404.941254 381.699860,401.339233 380.096771,397.369385 
z"/>
<path fill="#57C5BA" opacity="1.000000" stroke="none" 
	d="
M545.074097,515.205383 
	C562.950195,515.203796 580.337341,515.203796 598.494507,515.203796 
	C592.338013,536.523865 582.059143,554.438721 567.916626,571.042297 
	C552.860229,554.986633 542.936401,536.410034 535.507080,515.206970 
	C539.066650,515.206970 541.825867,515.206970 545.074097,515.205383 
z"/>
</svg>